<?xml version="1.0" encoding="UTF-8"?>
<svg id="Calque_2" data-name="Calque 2" xmlns="http://www.w3.org/2000/svg" viewBox="0 0 271.21 283.02">
  <defs>
    <style>
      .cls-1 {
        fill: #1d1d1b;
      }
    </style>
  </defs>
  <g id="Pictos_app" data-name="Pictos app">
    <path class="cls-1" d="M196.18,74.37c-25.56-24.44-64.84-35.81-97.58-19.8C41.37,81.93,19.21,164.7,5.52,220.32c-3.53,14.77-8.46,41.73-3.27,53.61,23.51-25.63,49.64-50.65,75.42-71.84,1.53-1.27,3.16-2.63,4.85-4.03-5.82-6.07-9.42-14.29-9.42-23.37,0-18.66,15.12-33.78,33.78-33.78s33.78,15.12,33.78,33.78-15.12,33.78-33.78,33.78c-6.5,0-12.54-1.87-17.7-5.05-23.34,26.7-53.93,56.96-78.66,77.96,23.05,8.45,89.15-18.12,113.93-27.97,30.57-13.3,61.67-29.55,83.22-55.47,33.55-38.92,24.12-91.79-11.5-123.57Z"/>
    <path class="cls-1" d="M244.19,115.97c-8.38-2.65-13.9-14.33-19.34-23.02-4.48-7.29-8.46-14.61-13.78-21.27-5.66-7.15-16.44-14.98-25.57-19.64-11.04-6.04-26.79-9.84-32.23-20.44-3.4-6.52-2.26-15.83,2.92-21.65C167.72-2.28,190.51-.17,204.94.72c34.21,2.67,60.17,10.22,64.75,51.34.96,6.57,1.59,14.06,1.51,20.29-.58,15.21-5.33,48.43-26.68,43.73l-.34-.11Z"/>
  </g>
</svg>