<?xml version="1.0" encoding="UTF-8"?>
<svg id="Calque_2" data-name="Calque 2" xmlns="http://www.w3.org/2000/svg" viewBox="0 0 283.46 283.46">
  <defs>
    <style>
      .cls-1 {
        fill: #1d1d1b;
      }

      .cls-2 {
        fill: #fff;
      }
    </style>
  </defs>
  <g id="Pictos_app" data-name="Pictos app">
    <path class="cls-1" d="M283.35,114.67c-7.16-39.37-61.12-83.45-96.18-100.84C146.11-6.53,123.06-6.53,71.82,28.22c-23.05,15.63-47.24,39.41-62.1,62.75-8.53,13.56-15.33,30.28-2.96,42.39,5.91,5.97,16.93,9.09,23.72,14.7,11.36,8.7,13.63,23.42,9.79,37.42-23.25,84.76,30.85,97.69,104.09,97.07,44.83-.31,112.41-7.35,105.49-65.26-1.95-16.34-5.97-27.9-5.98-44.03.07-6.94.75-14.19,4.7-19.9,10.56-14.81,36.6-14.38,34.81-38.3l-.03-.39Z"/>
    <path class="cls-2" d="M141.73,206.16c-29.28,0-53.02,24.78-53.02,55.35,0,5.89.89,11.56,2.52,16.88,14.27,3.89,31.77,5.24,52.87,5.06,16.88-.12,33.5-1.02,48.12-5.01,1.64-5.34,2.54-11.02,2.54-16.93,0-30.57-23.74-55.35-53.02-55.35Z"/>
  </g>
</svg>