<?xml version="1.0" encoding="UTF-8"?><svg id="Calque_2" xmlns="http://www.w3.org/2000/svg" viewBox="0 0 165.61 227"><defs><style>.cls-1{fill:#343433;}</style></defs><g id="Calque_1-2"><circle class="cls-1" cx="73.73" cy="97.48" r="22.55"/><path class="cls-1" d="M31.77,88.2c-4.34,11.73-1.2,26.43,11.22,36.5,17,13.78,68.37,14.08,75.08-22.71,5.23-28.63-22.6-40.87-31.19-52.26C73.23,31.62,83.37,2.12,110.19.12c28.16-2.1,49.52,24.36,54.06,53.62,5.49,35.37-6.25,60.77-23.68,74.95-31.42,25.56-61.15,23.71-85.03,19.84-23.89-3.87-64.19-24.88-53.88-75.65C10.22,30.68,48.81,24.68,58.36,32.91c11.61,10,4.58,24.62-3.95,29.77-9.23,5.57-18.32,13.82-22.65,25.52Z"/><path class="cls-1" d="M5.24,227v-52.49h34.2v8.35H14.68v12.1h23.69v8.28H14.68v10.73h25.35v13.03H5.24Z"/><path class="cls-1" d="M50.53,227l.72-52.49h9.36l-.29,39.46h24.34l-.79,13.03h-33.34Z"/><path class="cls-1" d="M95.17,227l1.08-52.49h9.07l.65,52.49h-10.8Z"/><path class="cls-1" d="M134.63,202.3l-15.55-27.79h10.3l11.67,19.87,11.67-19.87h10.37l-16.13,27.87,17.43,24.63h-14.26l-9.65-16.49-9.65,16.49h-14.33l18.15-24.7Z"/></g></svg>