<?xml version="1.0" encoding="UTF-8"?>
<svg id="Calque_2" data-name="Calque 2" xmlns="http://www.w3.org/2000/svg" xmlns:xlink="http://www.w3.org/1999/xlink" viewBox="0 0 280.89 280.89">
  <defs>
    <style>
      .cls-1 {
        fill: #1d1d1b;
      }

      .cls-2 {
        fill: #fff;
      }

      .cls-3 {
        fill: none;
      }

      .cls-4 {
        clip-path: url(#clippath);
      }
    </style>
    <clipPath id="clippath">
      <circle class="cls-3" cx="140.45" cy="140.45" r="140.41"/>
    </clipPath>
  </defs>
  <g id="Pictos_app" data-name="Pictos app">
    <g>
      <circle class="cls-1" cx="140.45" cy="140.45" r="140.41"/>
      <g class="cls-4">
        <g>
          <path class="cls-2" d="M217.19,253.19c7.13-19.26,1.98-43.38-18.42-59.91-27.9-22.61-112.21-23.11-123.24,37.28-8.58,47,37.09,67.08,51.19,85.77,22.41,29.72,5.77,78.14-38.25,81.43-46.22,3.46-81.28-39.98-88.73-88.01-9.01-58.06,10.27-99.75,38.88-123.02,51.58-41.95,100.37-38.92,139.57-32.57,39.21,6.35,105.36,40.84,88.44,124.17-14.06,69.25-77.4,79.1-93.08,65.59-19.06-16.41-7.52-40.42,6.48-48.86,15.16-9.14,30.07-22.68,37.18-41.88Z"/>
          <circle class="cls-2" cx="141.88" cy="88.48" r="40.6"/>
        </g>
      </g>
    </g>
  </g>
</svg>