<?xml version="1.0" encoding="UTF-8"?>
<svg id="Calque_2" data-name="Calque 2" xmlns="http://www.w3.org/2000/svg" viewBox="0 0 283.44 283.34">
  <defs>
    <style>
      .cls-1 {
        fill: #fffefa;
      }
    </style>
  </defs>
  <g id="Pictos_app" data-name="Pictos app">
    <g id="Recherche">
      <path d="M166.32,259.71c12.49,21.85,52.09,24.04,76.95,23.57,11.55-.15,24.89-1.36,34.23-8.4,8.01-6.15,7.98-14.94-.39-21.58-6.75-5.48-16.79-8.86-25.35-12.22-10.9-4.09-22.36-8.99-30.96-16.29-38.46-32.84-17.04-68.93-10.22-109.96,5.75-32.36-4.84-65.23-29.53-86.89C134.52-14.32,47.71-9.03,13.67,46.48c-24.14,39.85-15.57,96.84,19.8,127.33,17.3,15.13,39.91,22.5,62.37,25.67,19.03,3.11,29.41,3.46,46.05,13.56,15.68,9.33,15.36,31.71,24.31,46.5l.1.17Z"/>
      <ellipse class="cls-1" cx="106.4" cy="100.1" rx="60.5" ry="60.81"/>
    </g>
  </g>
</svg>