<?xml version="1.0" encoding="UTF-8"?>
<svg id="Calque_2" data-name="Calque 2" xmlns="http://www.w3.org/2000/svg" viewBox="0 0 282.88 278.7">
  <defs>
    <style>
      .cls-1 {
        fill: #fff;
      }
    </style>
  </defs>
  <g id="Pictos_app" data-name="Pictos app">
    <path d="M141.5,0c8.11.12,13.16,9.19,18.05,15.89,7.91,11.91,15.91,21.69,31.17,21.8,10.17-.12,21.76-5.11,31.11-6.44,6.27-1.28,13.46,1,15.35,7.7,3.66,15.91-6.25,34.8,5.01,49.63,7.97,11.56,24.91,14.44,35.24,22.02,8.12,5.89,6.4,14.48-.19,21.29-4.87,5.52-12.06,11.76-16.57,17.46-6.94,8.57-8.71,19.49-4.9,29.88,3.03,9.33,10.39,19.71,11.41,29.45.56,6.9-5.25,11.63-11.61,12.58-8.11,1.7-19.49,1.47-28.29,3.6-9.87,2.37-17.74,9.52-21.27,19.19-2.59,6.74-4.4,16-6.77,22.88-2.64,8.98-9.35,14.54-18.39,10.39-11.71-5.21-22.62-18.29-36.57-19.4-7.78-.86-15.35,1.84-21.75,6.17-11.72,7.22-28.95,25.06-37.61,6.16-6.95-17.03-5.65-38.08-27.73-44.95-9.28-2.69-21.58-2.19-30.23-4.11-6.27-1.02-11.92-5.83-11.26-12.64,1.13-9.92,8.7-20.5,11.65-30.04,3.59-10.43,1.5-21.29-5.63-29.75-4.49-5.48-11.37-11.51-16.09-16.86-7.61-7.88-7.99-16.98,1.88-22.7,10.89-6.81,28.08-10.44,34.79-23.16,8.71-13.92-.19-32.35,3.43-47.21,1.9-6.36,8.68-8.79,14.78-7.63,8.93,1.18,20.43,5.94,30.18,6.48,10.21.6,20-4.61,26.04-12.72C123.46,17.4,131.01-.08,141.37,0h.12Z"/>
    <circle class="cls-1" cx="141.44" cy="139.35" r="68.16"/>
  </g>
</svg>